<mxfile host="app.diagrams.net" modified="2023-04-14T17:22:23.915Z" agent="Mozilla/5.0 (Windows NT 10.0; Win64; x64) AppleWebKit/537.36 (KHTML, like Gecko) Chrome/112.0.0.0 Safari/537.36" etag="yebPMtNxT7T8O7ezx0ci" version="21.1.7" type="device">
  <diagram name="Страница 1" id="lgk_tJYk1CDYlmkXPm2l">
    <mxGraphModel dx="1000" dy="515" grid="0" gridSize="10" guides="1" tooltips="1" connect="1" arrows="1" fold="1" page="1" pageScale="1" pageWidth="827" pageHeight="1169" math="0" shadow="0">
      <root>
        <mxCell id="0" />
        <mxCell id="1" parent="0" />
        <mxCell id="aBM_FIYLuNZtqW5UER8X-1" value="" style="html=1;points=[];perimeter=orthogonalPerimeter;fillColor=#fff2cc;strokeColor=#d6b656;rounded=1;" vertex="1" parent="1">
          <mxGeometry x="170" y="370" width="10" height="160" as="geometry" />
        </mxCell>
        <mxCell id="aBM_FIYLuNZtqW5UER8X-2" value="" style="html=1;points=[];perimeter=orthogonalPerimeter;fillColor=#fff2cc;strokeColor=#d6b656;rounded=1;" vertex="1" parent="1">
          <mxGeometry x="490" y="390" width="10" height="130" as="geometry" />
        </mxCell>
        <mxCell id="aBM_FIYLuNZtqW5UER8X-3" value="" style="html=1;points=[];perimeter=orthogonalPerimeter;fillColor=#dae8fc;strokeColor=#6c8ebf;rounded=1;" vertex="1" parent="1">
          <mxGeometry x="332" y="370" width="10" height="120" as="geometry" />
        </mxCell>
        <mxCell id="aBM_FIYLuNZtqW5UER8X-4" value="" style="html=1;points=[];perimeter=orthogonalPerimeter;fillColor=#e1d5e7;strokeColor=#9673a6;rounded=1;" vertex="1" parent="1">
          <mxGeometry x="650" y="420" width="10" height="100" as="geometry" />
        </mxCell>
        <mxCell id="aBM_FIYLuNZtqW5UER8X-5" value="заполнение формы" style="html=1;verticalAlign=bottom;endArrow=block;rounded=0;exitX=1.051;exitY=0.008;exitDx=0;exitDy=0;exitPerimeter=0;" edge="1" source="aBM_FIYLuNZtqW5UER8X-1" parent="1">
          <mxGeometry x="0.0536" y="1" width="80" relative="1" as="geometry">
            <mxPoint x="221" y="371" as="sourcePoint" />
            <mxPoint x="333" y="371" as="targetPoint" />
            <mxPoint as="offset" />
          </mxGeometry>
        </mxCell>
        <mxCell id="aBM_FIYLuNZtqW5UER8X-6" value="проверка введенной инф" style="html=1;verticalAlign=bottom;endArrow=block;rounded=0;exitX=0.892;exitY=0.17;exitDx=0;exitDy=0;exitPerimeter=0;entryX=0.037;entryY=0.022;entryDx=0;entryDy=0;entryPerimeter=0;" edge="1" parent="1">
          <mxGeometry x="-0.0755" width="80" relative="1" as="geometry">
            <mxPoint x="340.92" y="389.40000000000003" as="sourcePoint" />
            <mxPoint x="490.37" y="390.32" as="targetPoint" />
            <mxPoint as="offset" />
          </mxGeometry>
        </mxCell>
        <mxCell id="aBM_FIYLuNZtqW5UER8X-7" value="Ввод информации" style="html=1;verticalAlign=bottom;endArrow=block;rounded=0;" edge="1" parent="1">
          <mxGeometry x="-0.0667" width="80" relative="1" as="geometry">
            <mxPoint x="500" y="420" as="sourcePoint" />
            <mxPoint x="650" y="420" as="targetPoint" />
            <mxPoint as="offset" />
          </mxGeometry>
        </mxCell>
        <mxCell id="aBM_FIYLuNZtqW5UER8X-8" value="" style="endArrow=classic;dashed=1;endFill=1;endSize=12;html=1;rounded=0;exitX=-0.152;exitY=0.985;exitDx=0;exitDy=0;exitPerimeter=0;entryX=1.184;entryY=0.989;entryDx=0;entryDy=0;entryPerimeter=0;" edge="1" source="aBM_FIYLuNZtqW5UER8X-4" target="aBM_FIYLuNZtqW5UER8X-2" parent="1">
          <mxGeometry width="160" relative="1" as="geometry">
            <mxPoint x="340" y="480" as="sourcePoint" />
            <mxPoint x="500" y="480" as="targetPoint" />
            <Array as="points">
              <mxPoint x="510" y="518" />
            </Array>
          </mxGeometry>
        </mxCell>
        <mxCell id="aBM_FIYLuNZtqW5UER8X-9" value="return" style="edgeLabel;html=1;align=center;verticalAlign=middle;resizable=0;points=[];" vertex="1" connectable="0" parent="aBM_FIYLuNZtqW5UER8X-8">
          <mxGeometry x="-0.1401" y="2" relative="1" as="geometry">
            <mxPoint x="-27" y="-11" as="offset" />
          </mxGeometry>
        </mxCell>
        <mxCell id="aBM_FIYLuNZtqW5UER8X-10" value="пользователь" style="html=1;rounded=1;" vertex="1" parent="1">
          <mxGeometry x="140" y="310" width="80" height="20" as="geometry" />
        </mxCell>
        <mxCell id="aBM_FIYLuNZtqW5UER8X-11" value="" style="endArrow=none;endFill=0;html=1;edgeStyle=orthogonalEdgeStyle;align=left;verticalAlign=top;rounded=0;dashed=1;dashPattern=1 2;exitX=0.5;exitY=1;exitDx=0;exitDy=0;entryX=0.62;entryY=-0.004;entryDx=0;entryDy=0;entryPerimeter=0;" edge="1" parent="1">
          <mxGeometry x="-1" relative="1" as="geometry">
            <mxPoint x="174" y="330" as="sourcePoint" />
            <mxPoint x="175.20000000000005" y="369.36" as="targetPoint" />
            <Array as="points">
              <mxPoint x="175" y="330" />
            </Array>
          </mxGeometry>
        </mxCell>
        <mxCell id="aBM_FIYLuNZtqW5UER8X-12" value="" style="endArrow=none;endFill=0;html=1;edgeStyle=orthogonalEdgeStyle;align=left;verticalAlign=top;rounded=0;dashed=1;dashPattern=1 2;exitX=0.5;exitY=1;exitDx=0;exitDy=0;entryX=0.62;entryY=-0.004;entryDx=0;entryDy=0;entryPerimeter=0;" edge="1" parent="1">
          <mxGeometry x="-1" relative="1" as="geometry">
            <mxPoint x="336" y="330" as="sourcePoint" />
            <mxPoint x="337.20000000000005" y="369.36" as="targetPoint" />
            <Array as="points">
              <mxPoint x="337" y="330" />
            </Array>
          </mxGeometry>
        </mxCell>
        <mxCell id="aBM_FIYLuNZtqW5UER8X-13" value="блок формы" style="html=1;rounded=1;" vertex="1" parent="1">
          <mxGeometry x="302" y="310" width="70" height="20" as="geometry" />
        </mxCell>
        <mxCell id="aBM_FIYLuNZtqW5UER8X-14" value="" style="endArrow=none;endFill=0;html=1;edgeStyle=orthogonalEdgeStyle;align=left;verticalAlign=top;rounded=0;dashed=1;dashPattern=1 2;exitX=0.5;exitY=1;exitDx=0;exitDy=0;entryX=0.62;entryY=-0.004;entryDx=0;entryDy=0;entryPerimeter=0;" edge="1" parent="1">
          <mxGeometry x="-1" relative="1" as="geometry">
            <mxPoint x="494" y="350" as="sourcePoint" />
            <mxPoint x="495.20000000000005" y="389.36" as="targetPoint" />
            <Array as="points">
              <mxPoint x="495" y="350" />
            </Array>
          </mxGeometry>
        </mxCell>
        <mxCell id="aBM_FIYLuNZtqW5UER8X-15" value="Приложение" style="html=1;rounded=1;" vertex="1" parent="1">
          <mxGeometry x="454" y="330" width="90" height="20" as="geometry" />
        </mxCell>
        <mxCell id="aBM_FIYLuNZtqW5UER8X-16" value="" style="endArrow=none;endFill=0;html=1;edgeStyle=orthogonalEdgeStyle;align=left;verticalAlign=top;rounded=0;dashed=1;dashPattern=1 2;exitX=0.5;exitY=1;exitDx=0;exitDy=0;entryX=0.62;entryY=-0.004;entryDx=0;entryDy=0;entryPerimeter=0;" edge="1" parent="1">
          <mxGeometry x="-1" relative="1" as="geometry">
            <mxPoint x="654" y="380.64" as="sourcePoint" />
            <mxPoint x="655.2" y="420" as="targetPoint" />
            <Array as="points">
              <mxPoint x="655" y="380.64" />
            </Array>
          </mxGeometry>
        </mxCell>
        <mxCell id="aBM_FIYLuNZtqW5UER8X-17" value="Бд" style="html=1;rounded=1;" vertex="1" parent="1">
          <mxGeometry x="610" y="360.64" width="90" height="20" as="geometry" />
        </mxCell>
        <mxCell id="aBM_FIYLuNZtqW5UER8X-18" value="" style="endArrow=none;endFill=0;html=1;edgeStyle=orthogonalEdgeStyle;align=left;verticalAlign=top;rounded=0;dashed=1;dashPattern=1 2;exitX=0.5;exitY=1;exitDx=0;exitDy=0;" edge="1" parent="1">
          <mxGeometry x="-1" relative="1" as="geometry">
            <mxPoint x="174.39" y="530" as="sourcePoint" />
            <mxPoint x="174" y="610" as="targetPoint" />
            <Array as="points">
              <mxPoint x="175.39" y="530" />
            </Array>
          </mxGeometry>
        </mxCell>
        <mxCell id="aBM_FIYLuNZtqW5UER8X-19" value="" style="endArrow=none;endFill=0;html=1;edgeStyle=orthogonalEdgeStyle;align=left;verticalAlign=top;rounded=0;dashed=1;dashPattern=1 2;exitX=0.537;exitY=1.02;exitDx=0;exitDy=0;exitPerimeter=0;" edge="1" source="aBM_FIYLuNZtqW5UER8X-3" parent="1">
          <mxGeometry x="-1" relative="1" as="geometry">
            <mxPoint x="337.15" y="530" as="sourcePoint" />
            <mxPoint x="336.76" y="610" as="targetPoint" />
            <Array as="points">
              <mxPoint x="337" y="530" />
              <mxPoint x="337" y="530" />
            </Array>
          </mxGeometry>
        </mxCell>
        <mxCell id="aBM_FIYLuNZtqW5UER8X-20" value="" style="endArrow=none;endFill=0;html=1;edgeStyle=orthogonalEdgeStyle;align=left;verticalAlign=top;rounded=0;dashed=1;dashPattern=1 2;exitX=0.463;exitY=1.017;exitDx=0;exitDy=0;exitPerimeter=0;" edge="1" parent="1">
          <mxGeometry x="-1" relative="1" as="geometry">
            <mxPoint x="654.63" y="520" as="sourcePoint" />
            <mxPoint x="655" y="610" as="targetPoint" />
            <Array as="points">
              <mxPoint x="655" y="606.98" />
            </Array>
          </mxGeometry>
        </mxCell>
        <mxCell id="aBM_FIYLuNZtqW5UER8X-21" value="" style="shape=umlDestroy;whiteSpace=wrap;html=1;strokeWidth=3;rounded=1;" vertex="1" parent="1">
          <mxGeometry x="490" y="600" width="10" height="10" as="geometry" />
        </mxCell>
        <mxCell id="aBM_FIYLuNZtqW5UER8X-22" value="" style="endArrow=none;endFill=0;html=1;edgeStyle=orthogonalEdgeStyle;align=left;verticalAlign=top;rounded=0;dashed=1;dashPattern=1 2;exitX=0.463;exitY=1.017;exitDx=0;exitDy=0;exitPerimeter=0;" edge="1" source="aBM_FIYLuNZtqW5UER8X-2" target="aBM_FIYLuNZtqW5UER8X-21" parent="1">
          <mxGeometry x="-1" relative="1" as="geometry">
            <mxPoint x="494.63" y="451.02000000000004" as="sourcePoint" />
            <mxPoint x="495" y="610" as="targetPoint" />
            <Array as="points" />
          </mxGeometry>
        </mxCell>
        <mxCell id="aBM_FIYLuNZtqW5UER8X-25" value="" style="endArrow=classic;dashed=1;endFill=1;endSize=12;html=1;rounded=0;entryX=1.184;entryY=0.989;entryDx=0;entryDy=0;entryPerimeter=0;" edge="1" parent="1">
          <mxGeometry width="160" relative="1" as="geometry">
            <mxPoint x="490" y="521" as="sourcePoint" />
            <mxPoint x="180" y="521" as="targetPoint" />
            <Array as="points">
              <mxPoint x="188" y="520" />
            </Array>
          </mxGeometry>
        </mxCell>
        <mxCell id="aBM_FIYLuNZtqW5UER8X-26" value="вход в приложение" style="edgeLabel;html=1;align=center;verticalAlign=middle;resizable=0;points=[];" vertex="1" connectable="0" parent="aBM_FIYLuNZtqW5UER8X-25">
          <mxGeometry x="-0.1401" y="2" relative="1" as="geometry">
            <mxPoint x="-27" y="-11" as="offset" />
          </mxGeometry>
        </mxCell>
      </root>
    </mxGraphModel>
  </diagram>
</mxfile>
